# xmcd CD database file
#
# Track frame offsets:
#	150
#	44061
#	50812
#	69850
#	88323
#	94759
#	115121
#	146515
#	168646
#	178112
#	202986
#	225667
#	245964
#	254414
#
# Disc length: 3851 seconds
#
# Revision: 0
# Processed by: cddbd v1.5.2PL0 Copyright (c) Steve Scherf et al.
# Submitted via: CDex 1.70beta2
#
DISCID=d20f090e
DTITLE=Bert van den Brink - Bert's Bytes
DYEAR=2007
DGENRE=Jazz
TTITLE0=Theme and Variations
TTITLE1=Fourths
TTITLE2=Valse Cliché
TTITLE3=Little Owl
TTITLE4=Thirds
TTITLE5=Blues for Oliver
TTITLE6=Pensativa
TTITLE7=Early Autumn
TTITLE8=Just Octaves
TTITLE9=Tristesse
TTITLE10=Woods
TTITLE11=Chase Blues
TTITLE12=Seconds
TTITLE13=Bachlude nr. 1
EXTD=YEAR: 2007
EXTT0=
EXTT1=
EXTT2=
EXTT3=
EXTT4=
EXTT5=
EXTT6=
EXTT7=
EXTT8=
EXTT9=
EXTT10=
EXTT11=
EXTT12=
EXTT13=
PLAYORDER=
